<svg width="60" height="60" viewBox="0 0 60 60" fill="none" xmlns="http://www.w3.org/2000/svg">
<path d="M30 60C46.5685 60 60 46.5685 60 30C60 13.4315 46.5685 0 30 0C13.4315 0 0 13.4315 0 30C0 46.5685 13.4315 60 30 60Z" fill="url(#paint0_linear_759_4965)"/>
<path fill-rule="evenodd" clip-rule="evenodd" d="M20.2047 19.8472C16.9273 19.8472 14.2686 22.5059 14.2686 25.7833H13.085C13.085 21.8522 16.2736 18.6635 20.2047 18.6635C24.1358 18.6635 27.3245 21.8522 27.3245 25.7833H26.1408C26.1408 22.5059 23.4821 19.8472 20.2047 19.8472Z" fill="white"/>
<path fill-rule="evenodd" clip-rule="evenodd" d="M40.6735 19.8472C37.3961 19.8472 34.7374 22.5059 34.7374 25.7833H33.5537C33.5537 21.8522 36.7423 18.6635 40.6735 18.6635C44.6046 18.6635 47.7932 21.8522 47.7932 25.7833H46.6095C46.6095 22.5059 43.9509 19.8472 40.6735 19.8472Z" fill="white"/>
<path fill-rule="evenodd" clip-rule="evenodd" d="M14.1792 38.6373C17.4764 44.0378 23.4234 47.6426 30.2099 47.6426C36.7241 47.6426 42.4614 44.3247 45.8274 39.2829L46.8118 39.9401C43.2356 45.2968 37.1362 48.8263 30.2099 48.8263C22.9936 48.8263 16.6719 44.9918 13.1689 39.2541L14.1792 38.6373Z" fill="white"/>
<defs>
<linearGradient id="paint0_linear_759_4965" x1="-15" y1="13.3333" x2="70.4244" y2="59.2097" gradientUnits="userSpaceOnUse">
<stop stop-color="#2E89DC"/>
<stop offset="0.270103" stop-color="#4361EE"/>
<stop offset="0.888854" stop-color="#FB6F92"/>
</linearGradient>
</defs>
</svg>
