<svg width="22" height="22" viewBox="0 0 22 22" fill="none" xmlns="http://www.w3.org/2000/svg">
<path d="M11.0001 0.166504C5.02008 0.166504 0.166748 5.01984 0.166748 10.9998C0.166748 16.9798 5.02008 21.8332 11.0001 21.8332C16.9801 21.8332 21.8334 16.9798 21.8334 10.9998C21.8334 5.01984 16.9801 0.166504 11.0001 0.166504ZM16.0267 7.53317C15.8642 9.24484 15.1601 13.4048 14.8026 15.3223C14.6509 16.1348 14.3476 16.4057 14.0659 16.4382C13.4376 16.4923 12.9609 16.0265 12.3542 15.6257C11.4009 14.9973 10.8592 14.6073 9.93841 14.0007C8.86591 13.2965 9.55925 12.9065 10.1767 12.2782C10.3392 12.1157 13.1126 9.5915 13.1667 9.364C13.1743 9.32955 13.1733 9.29377 13.1638 9.25979C13.1544 9.22581 13.1368 9.19464 13.1126 9.169C13.0476 9.11484 12.9609 9.1365 12.8851 9.14734C12.7876 9.169 11.2709 10.1765 8.31341 12.1698C7.88008 12.4623 7.49008 12.614 7.14341 12.6032C6.75341 12.5923 6.01675 12.3865 5.46425 12.2023C4.78175 11.9857 4.25091 11.8665 4.29425 11.4873C4.31591 11.2923 4.58675 11.0973 5.09591 10.8915C8.25925 9.51567 10.3609 8.60567 11.4117 8.17234C14.4234 6.91567 15.0409 6.699 15.4526 6.699C15.5392 6.699 15.7451 6.72067 15.8751 6.829C15.9834 6.91567 16.0159 7.03484 16.0267 7.1215C16.0159 7.1865 16.0376 7.3815 16.0267 7.53317Z" fill="white"/>
</svg>

