<svg width="26" height="20" viewBox="0 0 26 20" fill="none" xmlns="http://www.w3.org/2000/svg">
<path d="M25.4562 3.70142C25.3093 3.14813 25.0196 2.64315 24.6162 2.23703C24.2127 1.83092 23.7096 1.53794 23.1573 1.38742C21.1304 0.840332 13 0.840332 13 0.840332C13 0.840332 4.86958 0.840332 2.84158 1.38742C2.28953 1.5382 1.78674 1.83129 1.3835 2.23738C0.980267 2.64347 0.690724 3.14831 0.543833 3.70142C0 5.74242 0 9.99992 0 9.99992C0 9.99992 0 14.2574 0.543833 16.2984C0.690718 16.8517 0.98039 17.3567 1.38384 17.7628C1.78729 18.1689 2.29036 18.4619 2.84267 18.6124C4.86958 19.1595 13 19.1595 13 19.1595C13 19.1595 21.1304 19.1595 23.1584 18.6124C23.7108 18.462 24.2139 18.169 24.6174 17.7629C25.0208 17.3568 25.3105 16.8517 25.4573 16.2984C26 14.2574 26 9.99992 26 9.99992C26 9.99992 26 5.74242 25.4562 3.70142ZM10.3404 13.8652V6.13458L17.1362 9.99992L10.3404 13.8652Z" fill="white"/>
</svg>

